<?xml version="1.0" standalone="no"?>
<!DOCTYPE svg PUBLIC "-//W3C//DTD SVG 1.1//EN" "http://www.w3.org/Graphics/SVG/1.1/DTD/svg11.dtd" >
<svg xmlns="http://www.w3.org/2000/svg" xmlns:xlink="http://www.w3.org/1999/xlink" version="1.1" viewBox="-10 0 627 1000">
   <path fill="currentColor"
d="M343 810q-40 0 -73 -13.5t-55.5 -34.5t-33.5 -43l-2 81h-104v-735h106v283l-5 78q11 -26 37 -48t61.5 -35.5t75.5 -13.5q69 0 119 30.5t77 85t27 126.5q0 75 -32 128.5t-84 82t-114 28.5zM325 720q68 0 101.5 -43t33.5 -106q0 -65 -33.5 -107.5t-101.5 -42.5
q-36 0 -67 17.5t-49.5 49.5t-18.5 76v7q1 44 19 78t48.5 52.5t67.5 18.5z" />
</svg>
