<?xml version="1.0" encoding="UTF-8" standalone="no"?>
<svg
   width="850"
   height="1024"
   viewBox="0 0 850 1024"
   version="1.1"
   id="svg6"
   xmlns="http://www.w3.org/2000/svg"
   xmlns:svg="http://www.w3.org/2000/svg">
  <defs
     id="defs1" />
  <path
     d="m 426.87905,20.528 c -169.68,-1.101 -308.556,127.32 -309.593,286.259 -0.915,140.737 68.677,209.446 144.037,283.847 52.539,51.868 107.877,106.498 144.083,190.234 2.443,1.985 4.082,3.311 4.784,3.937 a 17.748,17.748 0 0 0 11.684,4.421 17.79,17.79 0 0 0 11.75,-4.266 c 0.19,-0.169 0.542,-0.315 0.968,-0.497 1.17,-0.502 2.945,-1.264 3.864,-3.38 36.085,-82.938 92.215,-136.837 145.817,-188.306 76.33,-73.297 147.532,-141.677 148.444,-281.987 1.035,-158.94 -136.154,-289.155 -305.838,-290.262 z m -0.954,146.435 c 84.022,0.547 151.686,70.127 151.132,155.411 -0.554,85.284 -69.116,153.983 -153.134,153.436 h -0.007 c -84.021,-0.547 -151.685,-70.134 -151.131,-155.418 0.557,-85.284 69.118,-153.976 153.14,-153.43 z m -111.981,671.457 c -14.018,-0.093 -25.481,15.41 -25.605,34.622 l -0.639,97.247 c -0.127,19.212 11.14,34.858 25.162,34.95 l 214.604,1.398 c 14.018,0.09 25.481,-15.409 25.605,-34.621 l 0.631,-97.248 c 0.128,-19.215 -11.133,-34.861 -25.155,-34.95 z"
     id="path1" />
</svg>
