<?xml version="1.0" encoding="UTF-8" standalone="no"?>
<svg width="512" height="512"
  xmlns="http://www.w3.org/2000/svg">
  <path d="M256 0c-42.7 0-42.7 42.7-42.7 42.7v4.2A213.3 213.3 0 0 0 47 213.3h-4.2S0 213.3 0 256s42.7 42.7 42.7 42.7h4.2A213.3 213.3 0 0 0 213.3 465v4.2s0 42.7 42.7 42.7 42.7-42.7 42.7-42.7v-4.2A213.3 213.3 0 0 0 465 298.7h4.2s42.7 0 42.7-42.7-42.7-42.7-42.7-42.7h-4.2A213.3 213.3 0 0 0 298.7 47v-4.2S298.7 0 256 0zm0 106.7a149.3 149.3 0 0 1 0 298.6 149.3 149.3 0 0 1 0-298.6zm0 64a85.3 85.3 0 0 0-85.3 85.3 85.3 85.3 0 0 0 85.3 85.3 85.3 85.3 0 0 0 85.3-85.3 85.3 85.3 0 0 0-85.3-85.3z"/>
</svg>
