<?xml version="1.0" standalone="no"?>
<!DOCTYPE svg PUBLIC "-//W3C//DTD SVG 1.1//EN" "http://www.w3.org/Graphics/SVG/1.1/DTD/svg11.dtd" >
<svg xmlns="http://www.w3.org/2000/svg" xmlns:xlink="http://www.w3.org/1999/xlink" version="1.1" viewBox="-10 0 625 1000">
   <path fill="currentColor"
d="M274 810q-61 0 -113.5 -29t-84.5 -83t-32 -129q0 -72 27.5 -126t78 -84t120.5 -30q42 0 76.5 14.5t58 35t31.5 39.5l2 -77h103v459h-102l-2 -81q-10 22 -33.5 43t-56.5 34.5t-73 13.5zM292 720q37 0 67.5 -17.5t49 -49.5t18.5 -76v-7q0 -45 -18.5 -78.5t-49 -52
t-67.5 -18.5q-67 0 -100.5 43t-33.5 106q0 64 33.5 107t100.5 43z" />
</svg>
