<?xml version="1.0" standalone="no"?>
<!DOCTYPE svg PUBLIC "-//W3C//DTD SVG 1.1//EN" "http://www.w3.org/Graphics/SVG/1.1/DTD/svg11.dtd" >
<svg xmlns="http://www.w3.org/2000/svg" xmlns:xlink="http://www.w3.org/1999/xlink" version="1.1" viewBox="-10 0 542 1000">
   <path fill="currentColor"
d="M288 810q-86 0 -140 -33.5t-79 -88.5t-25 -117q0 -75 30.5 -129t84.5 -83.5t122 -29.5q109 0 159 60.5t50 162.5q0 27 -3 56h-330q11 62 44.5 88.5t89.5 26.5q54 0 85 -10t51 -20l33 77q-20 13 -62 26.5t-110 13.5zM157 533h228q1 -65 -29 -89t-78 -24q-50 0 -81.5 26.5
t-39.5 86.5z" />
</svg>
