<svg xmlns="http://www.w3.org/2000/svg" width="512" height="512" fill="none" stroke="currentColor" stroke-linecap="round" stroke-linejoin="round" stroke-width="2" class="lucide lucide-box">
  <path stroke="none" d="M256 1c-12 0-24 3.1-34.8 9.3l-162.6 93a69.7 69.7 0 0 0-34.9 60.2v185.9a69.7 69.7 0 0 0 34.9 60.3l162.6 93c10.4 5.9 21.9 8.9 33.4 9.1a23.2 23.2 0 0 0 1.4.2 23.2 23.2 0 0 0 1.3-.2 69.5 69.5 0 0 0 33.5-9.2l162.6-92.9a69.7 69.7 0 0 0 34.9-60.3V163.6a69.7 69.7 0 0 0-34.9-60.3l-162.6-93A69.7 69.7 0 0 0 256 1Zm0 46.5c4 0 8 1 11.6 3a23.2 23.2 0 0 0 .1.1l150.4 86-162.1 93-162-93 150.3-86c3.7-2 7.7-3.1 11.7-3.1zm-185.8 129 162.6 93.4v185.8l-151-86.3a23.1 23.1 0 0 1-11.6-20Zm371.6 0v172.8c0 8.4-4.4 16-11.6 20.1l-151 86.3V270Z" style="color:#000;fill:#000;stroke:none;stroke-width:46.4585;-inkscape-stroke:none"/>
</svg>