<svg xmlns="http://www.w3.org/2000/svg" width="512" height="512" fill="none" stroke="currentColor" stroke-linecap="round" stroke-linejoin="round" stroke-width="2" class="lucide lucide-globe">
  <path d="M256 1.5A254.9 254.9 0 0 0 1.5 256 254.9 254.9 0 0 0 256 510.5 254.9 254.9 0 0 0 510.5 256 254.9 254.9 0 0 0 256 1.5zm53.8 53.3a207.8 207.8 0 0 1 153.1 178h-92a358.5 358.5 0 0 0-61.1-178zm-107.6 0a357.5 357.5 0 0 0-61 178H49.2a207.8 207.8 0 0 1 153-178zm53.8 5a312.3 312.3 0 0 1 68.5 173h-137a311 311 0 0 1 68.5-173zM49 279h92.3c4 62.6 24.3 124.2 60.9 178.1A207.8 207.8 0 0 1 49 279.2zm138.5 0h137A312.3 312.3 0 0 1 256 452.2a311 311 0 0 1-68.5-173zm183.3 0H463a207.8 207.8 0 0 1-153.1 178.1 358.5 358.5 0 0 0 61-178z"/>
</svg>