<?xml version="1.0" encoding="UTF-8" standalone="no"?>
<svg
   width="512"
   height="512"
   viewBox="0 0 512 512"
   fill="none"
   stroke="currentColor"
   stroke-width="2"
   stroke-linecap="round"
   stroke-linejoin="round"
   class="lucide lucide-info"
   version="1.1"
   id="svg2"
   xmlns="http://www.w3.org/2000/svg"
   xmlns:svg="http://www.w3.org/2000/svg">
  <defs
     id="defs2" />
  <path
     style="color:#000000;fill:#000000;fill-opacity:1;stroke:none;stroke-width:46.4545;-inkscape-stroke:none"
     d="M 256.5,1 C 115.66651,1 1,115.66651 1,256.5 1,397.3335 115.66651,512 256.5,512 397.3335,512 512,397.3335 512,256.5 512,115.66651 397.3335,1 256.5,1 Z m 0,46.454545 c 115.72761,0 209.04545,93.317835 209.04545,209.045455 0,115.72761 -93.31784,209.04545 -209.04545,209.04545 C 140.77238,465.54545 47.454545,372.22761 47.454545,256.5 47.454545,140.77238 140.77238,47.454545 256.5,47.454545 Z"
     id="circle1" />
  <g
     id="path1"
     style="stroke:none"
     transform="matrix(23.227273,0,0,23.227273,-22.227273,-22.227273)">
    <path
       style="color:#000000;fill:#000000;stroke:none;-inkscape-stroke:none"
       d="m 12,8 h 0.0098 z m 0,4 v 4 z"
       id="path3" />
    <path
       style="color:#000000;fill:#000000;stroke:none;-inkscape-stroke:none"
       d="M 12,7 A 1.0001,1.0001 0 0 0 11.013672,8 1.0001,1.0001 0 0 0 12,9 h 0.0098 a 1.0001,1.0001 0 0 0 0.853515,-0.5039062 1.0001,1.0001 0 0 0 0,-0.9921876 A 1.0001,1.0001 0 0 0 12.009766,7 Z m 0,4.013672 A 1.0001,1.0001 0 0 0 11,12 v 4 a 1.0001,1.0001 0 0 0 2,0 v -4 a 1.0001,1.0001 0 0 0 -1,-0.986328 z"
       id="path4" />
  </g>
</svg>
