<svg xmlns="http://www.w3.org/2000/svg" width="512" height="512" fill="none" stroke="currentColor" stroke-linecap="round" stroke-linejoin="round" stroke-width="2" class="lucide lucide-locate">
  <path stroke="none" d="M256.5 1a23.2 23.2 0 0 0-23.2 23.2v48a186.4 186.4 0 0 0-161.1 161h-48A23.2 23.2 0 0 0 1 256.6a23.2 23.2 0 0 0 23.2 23.2h48a186.4 186.4 0 0 0 161 161.1v48a23.2 23.2 0 0 0 23.3 23.2 23.2 23.2 0 0 0 23.2-23.2v-48a186.4 186.4 0 0 0 161.1-161h48a23.2 23.2 0 0 0 23.2-23.3 23.2 23.2 0 0 0-23.2-23.2h-48a186.4 186.4 0 0 0-161-161.1v-48A23.2 23.2 0 0 0 256.4 1Zm0 116.1a139 139 0 0 1 139.4 139.4 139 139 0 0 1-139.4 139.4 139 139 0 0 1-139.4-139.4 139 139 0 0 1 139.4-139.4z" style="color:#000;fill:#000;stroke:none;stroke-width:46.4545;-inkscape-stroke:none"/>
</svg>