<svg xmlns="http://www.w3.org/2000/svg" width="512" height="512" fill="none" stroke="currentColor" stroke-linecap="round" stroke-linejoin="round" stroke-width="2" class="lucide lucide-maximize">
  <path stroke="none" d="M78.5 2C36.5 2 2 36.6 2 78.5V155a25.5 25.5 0 0 0 25.5 25.5A25.5 25.5 0 0 0 53 155V78.5A25.1 25.1 0 0 1 78.5 53H155a25.5 25.5 0 0 0 25.5-25.5A25.5 25.5 0 0 0 155 2ZM359 2a25.5 25.5 0 0 0-25.5 25.5A25.5 25.5 0 0 0 359 53h76.5A25.1 25.1 0 0 1 461 78.5V155a25.5 25.5 0 0 0 25.5 25.5A25.5 25.5 0 0 0 512 155V78.5c0-42-34.6-76.5-76.5-76.5ZM27.5 333.5A25.5 25.5 0 0 0 2 359v76.5c0 42 34.6 76.5 76.5 76.5H155a25.5 25.5 0 0 0 25.5-25.5A25.5 25.5 0 0 0 155 461H78.5A25.1 25.1 0 0 1 53 435.5V359a25.5 25.5 0 0 0-25.5-25.5ZM486.5 333.5A25.5 25.5 0 0 0 461 359v76.5a25.1 25.1 0 0 1-25.5 25.5H359a25.5 25.5 0 0 0-25.5 25.5A25.5 25.5 0 0 0 359 512h76.5c42 0 76.5-34.6 76.5-76.5V359a25.5 25.5 0 0 0-25.5-25.5z" style="color:#000;fill:#000;stroke:none;stroke-width:51;-inkscape-stroke:none"/>
</svg>