<svg xmlns="http://www.w3.org/2000/svg" width="512" height="512" fill="none" stroke="currentColor" stroke-linecap="round" stroke-linejoin="round" stroke-width="2" class="lucide lucide-minimize">
  <path stroke="none" d="M155 2a25.5 25.5 0 0 0-25.5 25.5V104a25.1 25.1 0 0 1-25.5 25.5H27.5A25.5 25.5 0 0 0 2 155a25.5 25.5 0 0 0 25.5 25.5H104c42 0 76.5-34.6 76.5-76.5V27.5A25.5 25.5 0 0 0 155 2ZM359 2a25.5 25.5 0 0 0-25.5 25.5V104c0 42 34.6 76.5 76.5 76.5h76.5A25.5 25.5 0 0 0 512 155a25.5 25.5 0 0 0-25.5-25.5H410a25.1 25.1 0 0 1-25.5-25.5V27.5A25.5 25.5 0 0 0 359 2ZM27.5 333.5A25.5 25.5 0 0 0 2 359a25.5 25.5 0 0 0 25.5 25.5H104a25.1 25.1 0 0 1 25.5 25.5v76.5A25.5 25.5 0 0 0 155 512a25.5 25.5 0 0 0 25.5-25.5V410c0-42-34.6-76.5-76.5-76.5zM410 333.5c-42 0-76.5 34.6-76.5 76.5v76.5A25.5 25.5 0 0 0 359 512a25.5 25.5 0 0 0 25.5-25.5V410a25.1 25.1 0 0 1 25.5-25.5h76.5A25.5 25.5 0 0 0 512 359a25.5 25.5 0 0 0-25.5-25.5Z" style="color:#000;fill:#000;stroke:none;stroke-width:51;-inkscape-stroke:none"/>
</svg>