<svg xmlns="http://www.w3.org/2000/svg" width="512" height="512" fill="none" stroke="currentColor" stroke-linecap="round" stroke-linejoin="round" stroke-width="2" class="lucide lucide-zoom-out">
  <path stroke="none" d="M231.5 2A229.9 229.9 0 0 0 2 231.5C2 357.9 105 461 231.5 461c54 0 103.8-18.9 143-50.3l94 93.8a25.5 25.5 0 0 0 36 0 25.5 25.5 0 0 0 0-36l-93.8-94c31.4-39.2 50.3-89 50.3-143C461 105.1 358 2 231.5 2Zm0 51C330.4 53 410 132.6 410 231.5A178 178 0 0 1 359.7 356a25.5 25.5 0 0 0-2.1 1.6 25.5 25.5 0 0 0-1.6 2A178 178 0 0 1 231.5 410 178.1 178.1 0 0 1 53 231.5C53 132.6 132.6 53 231.5 53zM155 206a25.5 25.5 0 0 0-25.5 25.5A25.5 25.5 0 0 0 155 257h153a25.5 25.5 0 0 0 25.5-25.5A25.5 25.5 0 0 0 308 206z" style="color:#000;fill:#000;stroke:none;stroke-width:51.0004;-inkscape-stroke:none"/>
</svg>