<?xml version="1.0" standalone="no"?>
<!DOCTYPE svg PUBLIC "-//W3C//DTD SVG 1.1//EN" "http://www.w3.org/Graphics/SVG/1.1/DTD/svg11.dtd" >
<svg xmlns="http://www.w3.org/2000/svg" xmlns:xlink="http://www.w3.org/1999/xlink" version="1.1" viewBox="-10 0 620 1000">
   <path fill="currentColor"
d="M73 1043v-702h104v85q23 -41 64.5 -69t107.5 -28q62 0 111 26t77.5 79t28.5 134q0 74 -30 128.5t-80 84t-112 29.5q-59 0 -101 -21t-66 -58v312h-104zM319 719q68 0 101.5 -43t33.5 -105q0 -65 -33.5 -107t-101.5 -42q-36 0 -67 17t-50 49t-19 77v7q0 44 19 77.5t50 51.5
t67 18z" />
</svg>
