<svg xmlns="http://www.w3.org/2000/svg" width="512" height="512">
  <path d="M256 3a253 253 0 1 0 0 507 253 253 0 0 0 0-507zm0 28s3 0 11 9c7 9 15 25 22 46l1 2a884 884 0 0 0-68 0l1-2c7-21 15-37 22-46s11-9 11-9zm-43 8c-6 10-12 23-17 38l-4 13c-19 1-38 3-54 6 21-27 46-47 75-57zm86 0c28 10 54 30 75 57-16-3-35-5-55-6l-3-13c-5-15-11-28-17-38zM113 83c-6 7-11 14-15 22l-13 5c8-10 18-19 28-27zm286 0c10 8 20 17 28 27l-13-5c-4-8-9-15-15-22zm-143 32 41 1 6 26a829 829 0 0 1-94 0l6-26 41-1zm-71 3-4 22a485 485 0 0 1-65-10l1-1 8-2c17-4 37-7 60-9zm142 0a497 497 0 0 1 68 11v1l-8 2-56 8-4-22zm120 19c17 28 29 60 33 95-8-4-18-8-29-11-3-26-9-52-18-75h1l9-6 4-3zm-382 0 4 3 9 6c-8 23-14 49-17 75-11 3-21 7-29 11 4-35 15-67 33-95zm40 19 14 3c17 4 36 7 58 9l-4 35c-31 3-59 6-83 11 3-21 8-40 15-58zm302 0c7 18 12 37 15 58-24-5-52-8-84-11 0-12-2-24-3-35a508 508 0 0 0 72-12zm-202 14a862 862 0 0 0 102 0l3 31a1083 1083 0 0 0-108 0l3-31zm51 58 56 1a727 727 0 0 1 0 54 1040 1040 0 0 1-112 0 727 727 0 0 1 0-54l56-1zm-84 3a773 773 0 0 0 0 50c-32-3-61-7-85-12a308 308 0 0 1 0-26c24-5 53-9 85-12zm168 0c32 3 61 7 84 12a308 308 0 0 1 0 26c-23 5-52 9-84 12a773 773 0 0 0 0-50zM59 251v10l-13-5 13-5zm394 0 13 5-13 5v-10zm27 29c-4 35-16 67-33 95l-4-3-9-6h-1c9-23 15-49 18-75 11-3 21-7 29-11zm-448 0c8 4 18 8 29 11 3 26 9 52 17 75l-9 6-4 3c-18-28-29-60-33-95zm58 18c24 5 52 8 83 11l4 35a508 508 0 0 0-72 12c-7-18-12-37-15-58zm332 0c-3 21-8 40-15 58l-14-3c-17-4-36-7-58-9 1-11 3-23 3-35 32-3 60-6 84-11zm-220 13a1083 1083 0 0 0 108 0l-3 31a862 862 0 0 0-102 0l-3-31zm54 57 47 2-6 26a836 836 0 0 1-82 0l-6-26 47-2zm-75 4 4 22a497 497 0 0 1-68-11l-1-1 9-2 56-8zm150 0a485 485 0 0 1 64 10v1l-8 2c-17 4-37 7-60 9l4-22zM85 402l13 5c4 8 9 15 15 22-10-8-20-17-28-27zm342 0c-8 10-18 19-28 27 6-7 11-14 15-22l13-5zm-289 14c16 3 35 5 54 6l4 13c5 15 11 28 17 38-29-10-54-30-75-57zm236 0c-21 27-47 47-75 57 6-10 12-23 17-38l3-13c20-1 39-3 55-6zm-152 8a884 884 0 0 0 68 0l-1 2c-7 21-15 37-22 46-8 9-11 9-11 9s-4 0-11-9-15-25-22-46l-1-2z"/>
</svg>